<svg xmlns="http://www.w3.org/2000/svg" viewBox="0 0 64 64" aria-hidden="true">
  <path fill="#ee4d2d" d="M50.8 17.7h-8.2C41.6 10.2 37.1 5 31.9 5s-9.7 5.2-10.7 12.7h-8.1c-1.2 0-2.2.9-2.3 2.1L7.6 54.9c-.2 2.2 1.5 4.1 3.7 4.1h41.4c2.2 0 3.9-1.9 3.7-4.1l-3.3-35.1c-.1-1.2-1.1-2.1-2.3-2.1ZM31.9 9.5c2.8 0 5.4 3.4 6.2 8.2H25.7c.8-4.8 3.4-8.2 6.2-8.2Z"/>
  <path fill="#fff" d="M34.3 30.4c-4.7-1.8-7.1-2.6-7.1-4.8 0-1.8 1.6-3.1 4.2-3.1 2.5 0 4.7.9 6.7 2.3l2.3-3.8c-2.2-1.6-5.3-2.8-8.8-2.8-5.2 0-9.1 3.1-9.1 7.7 0 4.2 3.1 6.2 7.7 7.9 4.1 1.6 6.6 2.4 6.6 4.8 0 2.1-1.8 3.4-4.8 3.4-3 0-5.8-1.2-8.1-3l-2.4 3.9c2.8 2.2 6.7 3.5 10.4 3.5 5.9 0 9.8-3.3 9.8-8.2 0-4.1-2.7-6.1-7.4-7.8Z"/>
</svg>
