<?xml version="1.0" encoding="UTF-8"?>
<svg id="Camada_2" data-name="Camada 2" xmlns="http://www.w3.org/2000/svg" viewBox="0 0 79.82 79.16">
  <g id="FEED">
    <path d="m40.4,0c8.41.16,16.02,2.71,22.72,7.62,11.42,8.36,17.11,19.75,16.68,33.75-.54,17.59-12.47,31.22-27.07,35.66-7.97,2.43-16,3.04-24.06.45-2.17-.7-4.27-1.61-6.34-2.56-1.05-.48-2.01-.59-3.11-.29-5.25,1.41-10.51,2.81-15.78,4.16-2.49.64-3.74-.49-3.06-2.91,1.46-5.15,3.06-10.25,4.67-15.35.27-.87.24-1.54-.19-2.32C1.73,52.5-.03,46.34,0,39.88c.04-8.06,2.17-15.64,6.87-22.36C13.61,7.9,22.96,2.34,34.55.43c1.92-.32,3.89-.29,5.84-.43Zm-20.83,30.43c0,2.61.64,5.06,1.93,7.33,2.61,4.6,5.89,8.69,9.81,12.26,5.31,4.84,11.61,7.64,18.74,8.53,5.39.68,9.86-3.09,10.22-8.34.06-.85-.17-1.46-.94-1.82-2.7-1.28-5.41-2.53-8.1-3.83-1.02-.49-1.71-.2-2.36.64-.95,1.25-1.97,2.45-2.96,3.67-.47.58-.98.75-1.74.45-5.94-2.36-10.48-6.29-13.75-11.71-.43-.72-.32-1.28.2-1.9.8-.95,1.64-1.89,2.23-2.96.33-.6.45-1.55.21-2.17-1-2.61-2.14-5.18-3.29-7.73-.22-.49-.64-1.01-1.1-1.26-1.36-.73-4.4-.25-5.52.82-2.29,2.18-3.57,4.82-3.57,8.02Z"/>
  </g>
</svg>